<mxfile host="app.diagrams.net" modified="2020-09-26T14:31:52.516Z" agent="5.0 (Windows NT 10.0; Win64; x64) AppleWebKit/537.36 (KHTML, like Gecko) Chrome/85.0.4183.121 Safari/537.36" etag="vEcYL87nL-NP46vnoCET" version="13.7.5" type="github">
  <diagram id="1dBUSutDxZ20vjmwRSwW" name="Page-1">
    <mxGraphModel dx="1422" dy="745" grid="1" gridSize="10" guides="1" tooltips="1" connect="1" arrows="1" fold="1" page="1" pageScale="1" pageWidth="827" pageHeight="1169" math="0" shadow="0">
      <root>
        <mxCell id="0" />
        <mxCell id="1" parent="0" />
        <mxCell id="JlRl0G0uDdERfWToBK0x-21" style="edgeStyle=orthogonalEdgeStyle;rounded=0;orthogonalLoop=1;jettySize=auto;html=1;entryX=0.5;entryY=0;entryDx=0;entryDy=0;endArrow=none;endFill=0;startArrow=ERoneToMany;startFill=0;" parent="1" source="JlRl0G0uDdERfWToBK0x-2" target="JlRl0G0uDdERfWToBK0x-3" edge="1">
          <mxGeometry relative="1" as="geometry" />
        </mxCell>
        <mxCell id="JlRl0G0uDdERfWToBK0x-2" value="Login" style="rounded=0;whiteSpace=wrap;html=1;" parent="1" vertex="1">
          <mxGeometry x="245" y="320" width="120" height="60" as="geometry" />
        </mxCell>
        <mxCell id="JlRl0G0uDdERfWToBK0x-8" value="Username" style="ellipse;whiteSpace=wrap;html=1;" parent="1" vertex="1">
          <mxGeometry x="120" y="210" width="80" height="60" as="geometry" />
        </mxCell>
        <mxCell id="JlRl0G0uDdERfWToBK0x-9" value="" style="endArrow=none;html=1;entryX=0.75;entryY=0.95;entryDx=0;entryDy=0;entryPerimeter=0;exitX=0;exitY=0;exitDx=0;exitDy=0;" parent="1" source="JlRl0G0uDdERfWToBK0x-2" target="JlRl0G0uDdERfWToBK0x-8" edge="1">
          <mxGeometry width="50" height="50" relative="1" as="geometry">
            <mxPoint x="280" y="380" as="sourcePoint" />
            <mxPoint x="330" y="330" as="targetPoint" />
          </mxGeometry>
        </mxCell>
        <mxCell id="JlRl0G0uDdERfWToBK0x-10" value="Password" style="ellipse;whiteSpace=wrap;html=1;" parent="1" vertex="1">
          <mxGeometry x="210" y="170" width="80" height="60" as="geometry" />
        </mxCell>
        <mxCell id="JlRl0G0uDdERfWToBK0x-11" value="" style="endArrow=none;html=1;entryX=0.5;entryY=1;entryDx=0;entryDy=0;exitX=0.35;exitY=0;exitDx=0;exitDy=0;exitPerimeter=0;" parent="1" source="JlRl0G0uDdERfWToBK0x-2" target="JlRl0G0uDdERfWToBK0x-10" edge="1">
          <mxGeometry width="50" height="50" relative="1" as="geometry">
            <mxPoint x="280" y="380" as="sourcePoint" />
            <mxPoint x="330" y="330" as="targetPoint" />
          </mxGeometry>
        </mxCell>
        <mxCell id="JlRl0G0uDdERfWToBK0x-12" value="Nama_User" style="ellipse;whiteSpace=wrap;html=1;" parent="1" vertex="1">
          <mxGeometry x="320" y="180" width="80" height="60" as="geometry" />
        </mxCell>
        <mxCell id="JlRl0G0uDdERfWToBK0x-13" value="" style="endArrow=none;html=1;entryX=0.288;entryY=0.983;entryDx=0;entryDy=0;entryPerimeter=0;exitX=0.65;exitY=0;exitDx=0;exitDy=0;exitPerimeter=0;" parent="1" source="JlRl0G0uDdERfWToBK0x-2" target="JlRl0G0uDdERfWToBK0x-12" edge="1">
          <mxGeometry width="50" height="50" relative="1" as="geometry">
            <mxPoint x="280" y="380" as="sourcePoint" />
            <mxPoint x="330" y="330" as="targetPoint" />
          </mxGeometry>
        </mxCell>
        <mxCell id="JlRl0G0uDdERfWToBK0x-3" value="Menggunakan" style="rhombus;whiteSpace=wrap;html=1;" parent="1" vertex="1">
          <mxGeometry x="262.5" y="445" width="85" height="90" as="geometry" />
        </mxCell>
        <mxCell id="JlRl0G0uDdERfWToBK0x-33" style="edgeStyle=orthogonalEdgeStyle;rounded=0;orthogonalLoop=1;jettySize=auto;html=1;entryX=1;entryY=0.5;entryDx=0;entryDy=0;startArrow=ERmandOne;startFill=0;endArrow=none;endFill=0;" parent="1" source="JlRl0G0uDdERfWToBK0x-31" target="JlRl0G0uDdERfWToBK0x-3" edge="1">
          <mxGeometry relative="1" as="geometry" />
        </mxCell>
        <mxCell id="JlRl0G0uDdERfWToBK0x-31" value="Otentikasi" style="rounded=0;whiteSpace=wrap;html=1;" parent="1" vertex="1">
          <mxGeometry x="440" y="460" width="120" height="60" as="geometry" />
        </mxCell>
        <mxCell id="JlRl0G0uDdERfWToBK0x-35" value="User_id" style="ellipse;whiteSpace=wrap;html=1;" parent="1" vertex="1">
          <mxGeometry x="590" y="340" width="80" height="60" as="geometry" />
        </mxCell>
        <mxCell id="JlRl0G0uDdERfWToBK0x-37" value="" style="endArrow=none;html=1;entryX=0;entryY=1;entryDx=0;entryDy=0;exitX=0.75;exitY=0;exitDx=0;exitDy=0;" parent="1" source="JlRl0G0uDdERfWToBK0x-31" target="JlRl0G0uDdERfWToBK0x-35" edge="1">
          <mxGeometry width="50" height="50" relative="1" as="geometry">
            <mxPoint x="400" y="530" as="sourcePoint" />
            <mxPoint x="450" y="480" as="targetPoint" />
          </mxGeometry>
        </mxCell>
        <mxCell id="JlRl0G0uDdERfWToBK0x-38" value="User_Voice" style="ellipse;whiteSpace=wrap;html=1;" parent="1" vertex="1">
          <mxGeometry x="650" y="460" width="80" height="60" as="geometry" />
        </mxCell>
        <mxCell id="JlRl0G0uDdERfWToBK0x-39" value="" style="endArrow=none;html=1;entryX=0;entryY=0.5;entryDx=0;entryDy=0;exitX=1;exitY=0.5;exitDx=0;exitDy=0;" parent="1" source="JlRl0G0uDdERfWToBK0x-31" target="JlRl0G0uDdERfWToBK0x-38" edge="1">
          <mxGeometry width="50" height="50" relative="1" as="geometry">
            <mxPoint x="400" y="530" as="sourcePoint" />
            <mxPoint x="450" y="480" as="targetPoint" />
          </mxGeometry>
        </mxCell>
        <mxCell id="JlRl0G0uDdERfWToBK0x-40" value="User_id" style="ellipse;whiteSpace=wrap;html=1;" parent="1" vertex="1">
          <mxGeometry x="430" y="220" width="80" height="60" as="geometry" />
        </mxCell>
        <mxCell id="JlRl0G0uDdERfWToBK0x-41" value="" style="endArrow=none;html=1;exitX=1;exitY=0;exitDx=0;exitDy=0;entryX=0;entryY=1;entryDx=0;entryDy=0;" parent="1" source="JlRl0G0uDdERfWToBK0x-2" target="JlRl0G0uDdERfWToBK0x-40" edge="1">
          <mxGeometry width="50" height="50" relative="1" as="geometry">
            <mxPoint x="440" y="530" as="sourcePoint" />
            <mxPoint x="490" y="480" as="targetPoint" />
          </mxGeometry>
        </mxCell>
      </root>
    </mxGraphModel>
  </diagram>
</mxfile>
